<?xml version="1.0" standalone="no"?><svg xmlns="http://www.w3.org/2000/svg" viewBox="0 0 1440 320"><path fill="#1a1aff" fill-opacity="0.8" d="M0,128L18.5,128C36.9,128,74,128,111,122.7C147.7,117,185,107,222,106.7C258.5,107,295,117,332,138.7C369.2,160,406,192,443,197.3C480,203,517,181,554,197.3C590.8,213,628,267,665,250.7C701.5,235,738,149,775,128C812.3,107,849,149,886,170.7C923.1,192,960,192,997,202.7C1033.8,213,1071,235,1108,245.3C1144.6,256,1182,256,1218,218.7C1255.4,181,1292,107,1329,112C1366.2,117,1403,203,1422,245.3L1440,288L1440,0L1421.5,0C1403.1,0,1366,0,1329,0C1292.3,0,1255,0,1218,0C1181.5,0,1145,0,1108,0C1070.8,0,1034,0,997,0C960,0,923,0,886,0C849.2,0,812,0,775,0C738.5,0,702,0,665,0C627.7,0,591,0,554,0C516.9,0,480,0,443,0C406.2,0,369,0,332,0C295.4,0,258,0,222,0C184.6,0,148,0,111,0C73.8,0,37,0,18,0L0,0Z"></path></svg>